A small-town girl ventures to Los Angeles and finds her place in a neo-burlesque club run by a former dancer.


Cher...	Tess
Christina Aguilera...	Ali
Eric Dane	 ...	Marcus
Cam Gigandet	 ...	Jack
Julianne Hough	 ...	Georgia
Alan Cumming	 ...	Alexis
Peter Gallagher	 ...	Vince
Kristen Bell	 ...	Nikki
Stanley Tucci	 ...	Sean
Dianna Agron	 ...	Natalie


Format                           : AVI
Format/Info                      : Audio Video Interleave
File size                        : 799 MiB
Duration                         : 1h 58mn
Overall bit rate                 : 940 Kbps
Writing application              : VirtualDubMod 1.5.4.1 (build 2178/release)
Writing library                  : VirtualDubMod build 2178/release

Video
ID                               : 0
Format                           : MPEG-4 Visual
Format profile                   : Advanced Simple@L5
Format settings, BVOP            : 1
Format settings, QPel            : No
Format settings, GMC             : No warppoints
Format settings, Matrix          : Custom
Codec ID                         : XVID
Codec ID/Hint                    : XviD
Duration                         : 1h 58mn
Bit rate                         : 741 Kbps
Width                            : 640 pixels
Height                           : 272 pixels
Display aspect ratio             : 2.35:1
Frame rate                       : 23.976 fps
Color space                      : YUV
Chroma subsampling               : 4:2:0
Bit depth                        : 8 bits
Scan type                        : Progressive
Compression mode                 : Lossy
Bits/(Pixel*Frame)               : 0.178
Stream size                      : 630 MiB (79%)
Writing library                  : XviD 1.2.1 (UTC 2008-12-04)

Audio
ID                               : 1
Format                           : MPEG Audio
Format version                   : Version 1
Format profile                   : Layer 3
Mode                             : Joint stereo
Mode extension                   : MS Stereo
Codec ID                         : 55
Codec ID/Hint                    : MP3
Duration                         : 1h 58mn
Bit rate mode                    : Constant
Bit rate                         : 192 Kbps
Channel(s)                       : 2 channels
Sampling rate                    : 44.1 KHz
Compression mode                 : Lossy
Stream size                      : 163 MiB (20%)
Alignment                        : Split accross interleaves
Interleave, duration             : 83 ms (2.00 video frames)
Interleave, preload duration     : 500 ms
Writing library                  : LAME3.97

 
http://img141.imageshack.us/img141/2414/vlcsnap2011020412h35m56.png 
http://img148.imageshack.us/img148/3976/vlcsnap2011020412h36m10.png 
http://img707.imageshack.us/img707/7538/vlcsnap2011020412h38m15.png
